<svg xmlns="http://www.w3.org/2000/svg" width="145.243" height="32.336" viewBox="0 0 145.243 32.336"><defs><style>.a{fill:#ea0016;fill-rule:evenodd;}</style></defs><g transform="translate(-2.7 33.024)"><g transform="translate(51.137 -28.16)"><path class="a" d="M160.786-6.593a4.618,4.618,0,0,0,2.952-4.361c0-3.925-2.784-5.87-6.608-5.87H147.1V4.51H158c3.354,0,6.642-2.348,6.642-5.937A5.258,5.258,0,0,0,160.786-6.593Zm-8.453-5.8h3.891a1.9,1.9,0,0,1,2.013,1.783,1.875,1.875,0,0,1,0,.229,1.988,1.988,0,0,1-2.026,1.949l-.087,0H152.3ZM156.257.048h-3.891V-4.145h3.79c1.912,0,2.818.839,2.818,2.08C158.974-.522,157.834.048,156.257.048Z" transform="translate(-147.1 17.394)"/><path class="a" d="M214.395-18.424c-6.172,0-9.795,4.931-9.795,11.17,0,6.273,3.623,11.17,9.795,11.17,6.206,0,9.795-4.9,9.795-11.17C224.189-13.493,220.6-18.424,214.395-18.424Zm0,17.241c-3.019,0-4.528-2.717-4.528-6.071s1.509-6.038,4.528-6.038,4.562,2.717,4.562,6.038C218.957-3.866,217.414-1.183,214.395-1.183Z" transform="translate(-185.313 18.458)"/><path class="a" d="M276.232-9.568l-.738-.168c-1.811-.369-3.254-.839-3.254-2.147,0-1.409,1.375-1.979,2.583-1.979a6,6,0,0,1,4.361,1.979L282.5-15.17a9.948,9.948,0,0,0-7.782-3.354c-4.495,0-7.916,2.516-7.916,6.709,0,3.824,2.751,5.7,6.1,6.407l.738.168c2.784.57,3.824,1.006,3.824,2.348,0,1.275-1.14,2.113-2.885,2.113a6.69,6.69,0,0,1-5.4-2.751L265.8-.176c1.878,2.247,4.26,3.992,8.855,3.992,3.992,0,8.252-2.281,8.252-6.943C282.974-7.991,279.284-8.931,276.232-9.568Z" transform="translate(-225.984 18.524)"/><path class="a" d="M332.33-1.116c-2.348,0-4.8-1.946-4.8-6.206,0-3.79,2.281-5.9,4.663-5.9a4.118,4.118,0,0,1,3.857,2.382l4.294-2.851c-2.147-3.254-4.7-4.629-8.218-4.629-6.44,0-9.929,5-9.929,11.036,0,6.34,3.857,11.3,9.862,11.3,4.226,0,6.239-1.476,8.419-4.629l-4.327-2.918C335.282-2.123,334.343-1.116,332.33-1.116Z" transform="translate(-263.466 18.391)"/><path class="a" d="M395.076-16.824v7.849H388.6v-7.849H383V4.509h5.6V-3.91h6.474V4.509h5.6V-16.824Z" transform="translate(-303.871 17.394)"/></g><g transform="translate(2.7 -33.024)"><path d="M18.868-33.024A16.168,16.168,0,0,0,2.7-16.856,16.168,16.168,0,0,0,18.868-.688,16.168,16.168,0,0,0,35.036-16.856,16.176,16.176,0,0,0,18.868-33.024Zm0,30.826A14.659,14.659,0,0,1,4.209-16.856,14.658,14.658,0,0,1,18.868-31.515,14.658,14.658,0,0,1,33.526-16.856,14.674,14.674,0,0,1,18.868-2.2Z" transform="translate(-2.7 33.024)"/><path d="M33.582-14.924H32.475v5.535h-11.1v-5.535h-1.14A12.1,12.1,0,0,0,16.8,1.835a12.1,12.1,0,0,0,3.434,3.434h1.14V-.266h11.1V5.269h1.107a12.1,12.1,0,0,0,3.434-16.76A12.1,12.1,0,0,0,33.582-14.924ZM19.829,3.089a10.59,10.59,0,0,1-.882-14.951,10.51,10.51,0,0,1,.882-.882Zm12.646-4.9h-11.1V-7.88h11.1Zm1.509,4.864V-.3h0v-9.09h0v-3.354a10.619,10.619,0,0,1,.8,15A10.576,10.576,0,0,1,33.984,3.055Z" transform="translate(-10.738 20.995)"/></g></g></svg>